<svg width="792" height="534" viewBox="0 0 792 534" fill="none" xmlns="http://www.w3.org/2000/svg">
<g clip-path="url(#clip0_582_2)">
<path d="M772.179 75.8243C764.951 57.3074 752.429 41.3299 736.175 29.8872C719.922 18.4444 700.657 12.0434 680.788 11.4835C680.347 11.4646 679.944 11.5936 679.508 11.6094C678.932 11.4887 678.347 11.4105 677.759 11.3755C585.059 8.59199 484.418 65.7185 455.951 160.907C434.32 136.614 402.462 122.806 370.483 127.888C329.69 134.371 296.799 169.615 290.071 212.115C289.721 214.664 290.163 217.259 291.338 219.548C292.513 221.837 294.363 223.71 296.637 224.912C304.371 229.557 309.668 232.826 318.693 233.86C335.68 235.809 352.694 237.441 369.734 238.755C402.984 241.32 436.283 242.716 469.631 242.944C537.299 243.43 604.914 239.002 671.941 229.697C694.262 226.599 715.778 223.538 735.203 210.971C749.46 201.471 760.983 188.408 768.63 173.077C783.66 143.828 784.513 106.561 772.179 75.8243Z" fill="#3F3D56"/>
<path d="M768.314 78.633C761.345 61.6523 749.475 47.1331 734.218 36.9283C718.383 26.5723 699.969 20.8491 681.054 20.4048L679.924 20.524L678.856 20.4466C678.51 20.3768 678.16 20.3321 677.808 20.3127C646.196 19.8964 614.793 25.4979 585.273 36.8184C528.509 58.3354 477.054 100.53 457.421 161.909L454.628 170.715L448.34 163.955C427.655 141.859 398.96 130.719 370.858 133.685C369.46 133.832 368.064 134.007 366.647 134.238C327.803 140.295 295.966 172.042 289.193 211.454C289.066 212.837 289.375 214.225 290.077 215.424C290.779 216.623 291.838 217.572 293.107 218.138L293.572 218.414C301.003 222.606 305.487 225.151 313.325 225.988C330.4 227.776 347.742 229.263 364.86 230.421C398.056 232.682 432.008 233.858 465.736 233.916C525.385 234.024 584.985 230.523 644.211 223.432C652.889 222.408 661.537 221.305 670.156 220.124C692.352 217.101 713.339 214.208 732.283 202.501C745.832 193.906 756.918 181.941 764.456 167.776C771.562 154.099 775.59 139.031 776.256 123.632C776.923 108.233 774.212 92.8737 768.314 78.633Z" fill="white"/>
<path d="M644.2 223.422C584.975 230.513 525.375 234.014 465.727 233.905C432.002 233.848 398.051 232.672 364.851 230.41C347.733 229.253 330.391 227.765 313.316 225.978C305.481 225.146 300.995 222.601 293.563 218.404L293.098 218.127C291.829 217.562 290.769 216.613 290.067 215.414C289.366 214.215 289.057 212.827 289.184 211.443C295.957 172.034 327.794 140.285 366.638 134.228C368.055 133.998 369.451 133.823 370.849 133.676C398.953 130.71 427.649 141.849 448.333 163.949L454.622 170.709L457.415 161.903C477.05 100.53 528.505 58.3356 585.269 36.8186C598.172 46.2221 607.478 61.7488 604.774 77.3437C601.522 96.2591 582.184 109.884 580.723 129.019C579.384 146.482 593.328 161.109 607.206 171.771C621.082 182.408 636.954 192.888 642.404 209.498C643.868 213.987 644.477 218.709 644.2 223.422Z" fill="#FFA500"/>
<path d="M689.197 166.018C715.932 163.197 735.318 139.237 732.497 112.502C729.676 85.7672 705.716 66.3814 678.981 69.2026C652.246 72.0239 632.86 95.9839 635.681 122.719C638.503 149.454 662.463 168.839 689.197 166.018Z" fill="#FFA500"/>
<path d="M703.81 110.307L683.741 94.07C683.431 93.8186 683.074 93.6309 682.691 93.5176C682.308 93.4042 681.906 93.3675 681.509 93.4094C681.111 93.4513 680.726 93.5711 680.375 93.7619C680.024 93.9527 679.714 94.2108 679.463 94.5215L663.227 114.59C662.719 115.217 662.482 116.02 662.566 116.823C662.651 117.625 663.051 118.361 663.678 118.868C664.305 119.376 665.109 119.613 665.911 119.529C666.713 119.444 667.449 119.044 667.957 118.417L679.574 104.057L683.273 139.11C683.371 139.902 683.776 140.623 684.4 141.119C685.024 141.615 685.819 141.846 686.612 141.762C687.405 141.678 688.133 141.287 688.64 140.671C689.147 140.056 689.393 139.266 689.323 138.472L685.624 103.419L699.984 115.037C700.611 115.545 701.414 115.782 702.216 115.697C703.019 115.613 703.755 115.213 704.262 114.586C704.77 113.958 705.007 113.155 704.923 112.353C704.838 111.55 704.437 110.815 703.81 110.307Z" fill="white"/>
<path d="M108.385 258.196C108.385 258.196 123.125 281.574 117.861 287.904C112.597 294.234 157.356 294.392 157.356 294.392C157.356 294.392 150.633 260.384 152.611 252.557L108.385 258.196Z" fill="#9F616A"/>
<path d="M131.944 266.67C157.471 266.67 178.165 245.976 178.165 220.449C178.165 194.922 157.471 174.228 131.944 174.228C106.417 174.228 85.723 194.922 85.723 220.449C85.723 245.976 106.417 266.67 131.944 266.67Z" fill="#090814"/>
<path d="M240.653 470.975V498.375L268.053 492.666L265.771 473.258L240.653 470.975Z" fill="#9F616A"/>
<path d="M339.207 478.017L414.675 495.906L393.304 523.031C393.304 523.031 341.031 501.045 327.357 500.086C313.684 499.127 339.207 478.017 339.207 478.017Z" fill="#9F616A"/>
<path d="M164.162 420.741C164.162 420.741 221.246 354.523 239.513 357.948C257.78 361.373 265.772 381.923 265.772 381.923L276.047 483.533C276.047 483.533 239.513 486.958 239.513 483.533C239.513 480.108 232.663 407.04 232.663 407.04C232.663 407.04 179.003 525.772 150.462 447L164.162 420.741Z" fill="#E6E6E6"/>
<path d="M71.683 465.268C71.683 465.268 72.827 525.076 107.075 528.506C141.323 531.936 179.001 502.944 179.001 502.944L240.652 473.408C240.652 473.408 313.72 512.077 335.412 501.802C335.412 501.802 358.246 477.827 343.404 470.976C328.562 464.125 342.262 470.976 342.262 470.976L254.352 425.308C254.352 425.308 237.227 420.741 207.543 433.3C177.859 445.859 137.9 451.567 137.9 451.567L71.683 465.268Z" fill="#E6E6E6"/>
<path d="M128.768 270.04C147.684 270.04 163.019 254.705 163.019 235.789C163.019 216.873 147.684 201.538 128.768 201.538C109.852 201.538 94.517 216.873 94.517 235.789C94.517 254.705 109.852 270.04 128.768 270.04Z" fill="#9F616A"/>
<path d="M177.86 331.689L175.577 379.64C175.577 379.64 176.719 442.433 166.443 447C161.248 449.306 150.813 453.941 141.166 459.01C133.928 462.8 127.135 466.819 123.344 470.279C122.339 471.134 121.472 472.139 120.775 473.259C116.208 481.251 86.524 480.109 79.675 474.401C72.826 468.693 77.392 481.251 71.683 483.535C66.157 485.75 58.497 467.643 63.189 440.607C63.337 439.707 63.509 438.792 63.689 437.867C68.929 411.667 60.698 348.907 61.965 324.657C62.0387 322.804 62.2331 320.958 62.547 319.131C65.972 300.864 109.676 263.691 117.847 279.526C127.917 299.072 151.047 281.216 155.02 272.326C177.854 271.184 185.846 298.585 185.846 298.585L177.86 331.689Z" fill="#FFA500"/>
<path d="M270.336 488.101C270.336 488.101 252.069 494.951 246.361 493.809C240.653 492.667 234.944 497.234 234.944 504.084C234.944 510.934 228.094 526.918 238.369 528.059C248.644 529.2 290.887 526.917 300.02 530.342C300.02 530.342 341.12 531.484 337.696 514.358C334.272 497.232 317.146 498.374 317.146 498.374C317.146 498.374 270.336 496.093 270.336 488.101Z" fill="#090814"/>
<path d="M403.915 496.109C403.915 496.109 406.198 489.259 409.623 489.259C413.048 489.259 440.449 493.826 443.874 492.684C447.299 491.542 487.258 489.259 480.408 508.668C473.558 528.077 450.724 530.36 450.724 530.36C450.724 530.36 409.624 525.793 403.915 526.935C398.206 528.077 377.656 526.935 381.081 521.227C384.506 515.519 406.198 505.242 403.915 496.109Z" fill="#090814"/>
<path d="M299.992 327.538L306.255 353.375C306.325 353.663 306.314 353.965 306.224 354.247L277.811 443.036C277.698 443.387 277.468 443.689 277.16 443.891C276.851 444.094 276.483 444.184 276.116 444.148C275.749 444.112 275.405 443.951 275.142 443.692C274.879 443.433 274.713 443.092 274.671 442.726L270.74 408.137C270.714 407.907 270.737 407.675 270.809 407.455L296.889 327.418C296.999 327.085 297.214 326.797 297.501 326.598C297.789 326.398 298.134 326.297 298.484 326.311C298.834 326.324 299.17 326.451 299.442 326.673C299.713 326.894 299.905 327.198 299.989 327.538H299.992Z" fill="#090814"/>
<path d="M297.688 329.719L303.471 351.887L278.411 432.848L272.628 407.789L297.688 329.719Z" fill="white"/>
<path d="M171.427 450.199C172.391 453.09 271.664 449.235 272.627 448.271C273.467 447.064 274.178 445.772 274.747 444.416C275.653 442.488 276.482 440.561 276.482 440.561L272.627 409.353L174.318 405.864C174.318 405.864 171.86 432.311 171.359 444.417C171.188 446.342 171.211 448.279 171.427 450.199Z" fill="#090814"/>
<path opacity="0.1" d="M260.099 413.571L262.027 440.559H218.655V413.571H260.099Z" fill="#D6D6E3"/>
<path opacity="0.1" d="M204.197 422.246L204.456 422.194L203.232 433.811H179.132V422.246H204.197Z" fill="black"/>
<path opacity="0.1" d="M171.427 450.193C172.391 453.084 271.664 449.229 272.627 448.265C273.467 447.058 274.178 445.766 274.747 444.41H171.359C171.188 446.335 171.211 448.272 171.427 450.193Z" fill="black"/>
<path d="M139.601 182.8C146.715 182.8 152.482 177.033 152.482 169.919C152.482 162.805 146.715 157.038 139.601 157.038C132.487 157.038 126.72 162.805 126.72 169.919C126.72 177.033 132.487 182.8 139.601 182.8Z" fill="#090814"/>
<path d="M135.726 183.941C135.726 183.941 122.565 205.832 91.963 214.026C61.361 222.22 91.713 268.208 91.713 268.208C91.713 268.208 80.676 251.485 96.596 233.775C112.516 216.065 138.135 203.958 135.726 183.941Z" fill="#090814"/>
<path opacity="0.1" d="M141.166 459.012C138.346 464.344 135.035 469.881 134.476 472.119C134.099 473.637 129.921 472.758 123.345 470.281C110.159 465.292 87.302 453.864 65.975 442.435C64.9919 441.913 64.0593 441.302 63.189 440.608C63.337 439.708 63.509 438.793 63.689 437.868C68.929 411.668 60.698 348.908 61.965 324.658L71.681 321.416L91.09 339.683V417.318C91.09 417.318 141.324 444.718 144.749 447.002C146.497 448.166 144.089 453.475 141.166 459.012Z" fill="black"/>
<path d="M183.569 396.766L214.395 412.75C214.395 412.75 232.662 393.341 244.079 408.183C255.496 423.025 210.97 427.592 210.97 427.592C210.97 427.592 172.153 418.458 171.011 405.9C169.869 393.342 183.569 396.766 183.569 396.766Z" fill="#9F616A"/>
<path d="M132.193 439.009L150.46 443.576C150.46 443.576 171.01 418.459 192.702 427.592C214.394 436.725 165.302 454.992 165.302 454.992C165.302 454.992 139.043 468.692 128.768 457.275C118.493 445.858 132.193 439.009 132.193 439.009Z" fill="#9F616A"/>
<path d="M172.151 288.306C173.293 289.448 185.851 298.581 185.851 298.581C185.851 298.581 189.276 341.965 184.709 351.099C180.142 360.233 176.717 360.233 180.142 364.799C183.567 369.365 188.134 365.941 183.567 373.933C179 381.925 174.433 380.783 177.859 384.208C181.285 387.633 180.142 388.775 180.142 388.775L193.842 400.192C193.842 400.192 185.437 413.58 174.797 412.592C164.157 411.604 155.024 360.231 155.024 360.231L172.151 288.306Z" fill="#FFA500"/>
<path d="M71.683 315.706L61.407 319.128C61.407 319.128 34.007 419.597 65.974 436.722C97.941 453.847 133.334 470.973 134.474 466.406C135.614 461.839 148.174 443.572 144.749 441.289C141.324 439.006 91.09 411.605 91.09 411.605V333.973L71.683 315.706Z" fill="#FFA500"/>
<path opacity="0.1" d="M87.095 357.377L84.813 412.177L145.322 440.72L89.379 412.177L87.095 357.377Z" fill="black"/>
<path d="M532.063 530.36H0V533.417H532.063V530.36Z" fill="#D6D6E3"/>
</g>
<defs>
<clipPath id="clip0_582_2">
<rect width="791.308" height="533.417" fill="white"/>
</clipPath>
</defs>
</svg>
