<svg width="512" height="512" viewBox="0 0 512 512" fill="none" xmlns="http://www.w3.org/2000/svg">
<mask id="mask0_391_23" style="mask-type:alpha" maskUnits="userSpaceOnUse" x="0" y="0" width="512" height="256">
<rect width="512" height="256" fill="#D9D9D9"/>
</mask>
<g mask="url(#mask0_391_23)">
<mask id="mask1_391_23" style="mask-type:alpha" maskUnits="userSpaceOnUse" x="21" y="21" width="470" height="470">
<mask id="mask2_391_23" style="mask-type:alpha" maskUnits="userSpaceOnUse" x="0" y="0" width="512" height="512">
<rect width="512" height="512" rx="28" fill="#D9D9D9"/>
</mask>
<g mask="url(#mask2_391_23)">
<path d="M256 106.667C244.218 106.667 234.667 97.1155 234.667 85.3334V42.6668C234.667 30.8847 244.218 21.3334 256 21.3334V21.3334C267.782 21.3334 277.333 30.8847 277.333 42.6668V85.3334C277.333 97.1155 267.782 106.667 256 106.667V106.667ZM391.297 150.57C383.143 158.724 369.923 158.724 361.77 150.57V150.57C353.692 142.492 353.606 129.423 361.576 121.239L391.837 90.1678C400.12 81.6627 413.777 81.6329 422.098 90.1017V90.1017C430.238 98.388 430.18 111.687 421.966 119.901L391.297 150.57ZM426.667 277.333C414.885 277.333 405.333 267.782 405.333 256V256C405.333 244.218 414.885 234.667 426.667 234.667H469.333C481.115 234.667 490.667 244.218 490.667 256V256C490.667 267.782 481.115 277.333 469.333 277.333H426.667ZM256 490.667C244.218 490.667 234.667 481.115 234.667 469.333V426.667C234.667 414.885 244.218 405.333 256 405.333V405.333C267.782 405.333 277.333 414.885 277.333 426.667V469.333C277.333 481.115 267.782 490.667 256 490.667V490.667ZM150.029 150.225C141.913 158.05 129.05 158.019 120.973 150.154L90.1703 120.162C81.6641 111.88 81.6335 98.2222 90.1025 89.9017V89.9017C98.3883 81.7613 111.687 81.8201 119.9 90.0336L150.3 120.433C158.558 128.691 158.436 142.118 150.029 150.225V150.225ZM421.861 421.33C413.411 430.077 399.393 430.073 390.946 421.323L361.344 390.654C353.492 382.519 353.607 369.593 361.601 361.599V361.599C369.595 353.605 382.519 353.49 390.654 361.34L421.328 390.937C429.871 399.181 430.11 412.791 421.861 421.33V421.33ZM42.6667 277.333C30.8846 277.333 21.3334 267.782 21.3334 256V256C21.3334 244.218 30.8846 234.667 42.6667 234.667H85.3333C97.1154 234.667 106.667 244.218 106.667 256V256C106.667 267.782 97.1154 277.333 85.3334 277.333H42.6667ZM120.267 422.133C111.894 430.506 98.3 430.446 90.0012 421.999V421.999C81.8056 413.657 81.8649 400.269 90.1339 392L119.99 362.143C128.328 353.805 141.77 353.565 150.4 361.6V361.6V361.6C158.898 369.805 159.017 383.383 150.664 391.736L120.267 422.133ZM256 384C220.444 384 190.222 371.556 165.333 346.667C140.444 321.778 128 291.556 128 256C128 220.445 140.444 190.222 165.333 165.333C190.222 140.445 220.444 128 256 128C291.556 128 321.778 140.445 346.667 165.333C371.556 190.222 384 220.445 384 256C384 291.556 371.556 321.778 346.667 346.667C321.778 371.556 291.556 384 256 384ZM256 341.333C279.467 341.333 299.556 332.978 316.267 316.267C332.978 299.556 341.333 279.467 341.333 256C341.333 232.533 332.978 212.445 316.267 195.733C299.556 179.022 279.467 170.667 256 170.667C232.533 170.667 212.444 179.022 195.733 195.733C179.022 212.445 170.667 232.533 170.667 256C170.667 279.467 179.022 299.556 195.733 316.267C212.444 332.978 232.533 341.333 256 341.333Z" fill="#E8C300"/>
<path d="M256 147L339.5 186L342 256H168L179 179L256 147Z" fill="#E8C300"/>
</g>
</mask>
<g mask="url(#mask1_391_23)">
<rect width="512" height="512" fill="#E8C300"/>
</g>
</g>
<rect x="81" y="432" width="350" height="75" rx="15" fill="#4E799B"/>
<rect x="81" y="350" width="350" height="75" rx="15" fill="#008080"/>
<rect x="81" y="269" width="350" height="75" rx="15" fill="#FFA500"/>
</svg>
