<svg width="799" height="775" viewBox="0 0 799 775" fill="none" xmlns="http://www.w3.org/2000/svg">
<g clip-path="url(#clip0_582_63)">
<path d="M230.335 292.628C230.335 292.628 241.273 270.753 239.091 251.074L275.491 269.937L274.085 305.747L230.335 292.628Z" fill="#9F616A"/>
<path d="M254.612 278.411C272.75 278.411 287.453 263.708 287.453 245.57C287.453 227.432 272.75 212.729 254.612 212.729C236.474 212.729 221.771 227.432 221.771 245.57C221.771 263.708 236.474 278.411 254.612 278.411Z" fill="#9F616A"/>
<path d="M219.384 762.856H239.434L248.964 685.562H219.384V762.856Z" fill="#9F616A"/>
<path d="M288.035 762.391C288.654 763.447 288.992 766.839 288.992 768.05C288.992 769.854 288.276 771.583 287 772.858C285.725 774.134 283.995 774.85 282.192 774.85H220.144C218.912 774.849 217.732 774.359 216.861 773.488C215.99 772.617 215.5 771.437 215.499 770.205V767.615C215.499 767.615 212.43 759.845 218.751 750.287C218.751 750.287 226.606 757.776 238.346 746.05L241.809 739.786L266.865 758.114L280.759 759.814C283.8 760.194 286.488 759.758 288.051 762.39H288.037L288.035 762.391Z" fill="#090814"/>
<path d="M278.463 292.628L230.335 286.068L193.145 303.568L190.963 439.179C190.963 439.179 282.433 450.116 296.847 435.899C311.261 421.682 300.326 307.943 300.326 307.943L278.449 292.628H278.463Z" fill="#4E799B"/>
<path d="M228.585 251.334C230.208 256.938 226.749 263.516 226.749 263.516L225.138 263.041C225.138 263.041 202.67 211.709 239.256 204.991C275.841 198.273 287.066 226.109 287.066 226.109C287.066 226.109 289.661 239.555 285.127 235.884C280.593 232.213 254.71 233.656 254.71 233.656L235.564 232.597C235.564 232.597 226.959 245.729 228.585 251.334Z" fill="#090814"/>
<path d="M284.502 745.486L303.773 750.92L333.953 679.144L305.49 671.106L284.502 745.486Z" fill="#9F616A"/>
<path d="M350.69 763.701C351 764.883 350.39 768.234 350.071 769.416C349.829 770.275 349.419 771.079 348.867 771.78C348.314 772.482 347.628 773.067 346.849 773.504C346.07 773.94 345.213 774.219 344.326 774.324C343.439 774.429 342.54 774.358 341.681 774.116L281.967 757.254C280.783 756.918 279.781 756.126 279.179 755.052C278.578 753.979 278.426 752.71 278.758 751.525L279.458 749.033C279.458 749.033 278.613 740.728 287.299 733.239C287.299 733.239 292.817 742.586 307.299 734.478L312.338 729.378L331.468 753.815L344.362 759.234C347.177 760.416 349.894 760.74 350.682 763.696L350.69 763.701Z" fill="#090814"/>
<path d="M197.537 426.06L190.977 445.908V514.108L216.243 742.278L247.236 739.06L253.463 573.019L250.042 500.441L323.395 611.421L286.479 725.536H317.172C317.172 725.536 379.715 593.416 371.772 581.691C363.829 569.966 292.722 431.648 292.722 431.648C292.722 431.648 197.564 428.256 197.564 426.074L197.537 426.06Z" fill="#090814"/>
<path d="M177.844 347.315L167.273 364.629C167.273 364.629 152.324 423.385 167.273 423.624C182.222 423.863 212.402 393.686 212.402 393.686L208.461 377.934L197.524 382.312L199.706 347.318H177.844V347.315Z" fill="#9F616A"/>
<path d="M210.656 303.298C210.656 303.298 175.662 297.132 172.382 320.035C169.102 342.938 167.272 364.644 167.272 364.644L205.194 367.783L210.656 303.298Z" fill="#4E799B"/>
<path d="M288.339 455.153L337.721 413.072C338.286 412.56 338.626 411.844 338.664 411.082C338.703 410.32 338.438 409.573 337.928 409.006L257.955 315.153C257.476 314.559 256.781 314.179 256.023 314.097C255.264 314.014 254.504 314.235 253.908 314.712L204.526 356.793C203.961 357.305 203.621 358.021 203.583 358.783C203.544 359.545 203.809 360.292 204.319 360.859L284.297 454.713C284.776 455.305 285.47 455.684 286.227 455.766C286.985 455.849 287.744 455.628 288.339 455.153Z" fill="white"/>
<path d="M288.339 455.153L337.721 413.072C338.286 412.56 338.626 411.844 338.664 411.082C338.703 410.32 338.438 409.573 337.928 409.006L257.955 315.153C257.476 314.559 256.781 314.179 256.023 314.097C255.264 314.014 254.504 314.235 253.908 314.712L204.526 356.793C203.961 357.305 203.621 358.021 203.583 358.783C203.544 359.545 203.809 360.292 204.319 360.859L284.297 454.713C284.776 455.305 285.47 455.684 286.227 455.766C286.985 455.849 287.744 455.628 288.339 455.153Z" stroke="#2F2E41" stroke-miterlimit="10"/>
<path d="M312.134 320.134L332.01 324.244C332.01 324.244 385.135 353.481 375.084 364.559C365.033 375.637 322.384 377.059 322.384 377.059L313.572 363.419L324.242 358.419L297.185 336.115L312.134 320.134Z" fill="#9F616A"/>
<path d="M257.573 314.01C257.573 314.01 276.985 284.238 295.946 297.498C314.907 310.758 331.999 324.244 331.999 324.244L308.375 354.074L257.559 314.01H257.573Z" fill="#4E799B"/>
<path d="M327.376 368.916C326.294 363.567 316.75 360.984 306.06 363.148C295.369 365.311 287.58 371.401 288.663 376.75C289.745 382.1 299.289 384.682 309.98 382.519C320.67 380.356 328.459 374.266 327.376 368.916Z" fill="#9F616A"/>
<path d="M235.229 368.852C232.063 364.406 222.294 365.932 213.41 372.26C204.526 378.587 199.891 387.321 203.057 391.766C206.223 396.211 215.992 394.686 224.876 388.358C233.76 382.03 238.395 373.297 235.229 368.852Z" fill="#9F616A"/>
<path opacity="0.7" d="M797.514 1.41199V585.065C797.049 585.165 796.585 585.248 796.106 585.318C788.969 586.613 781.739 587.861 774.414 589.062C765.715 590.498 756.893 591.887 747.95 593.229C740.517 594.327 733.01 595.394 725.427 596.429C703.341 599.456 680.659 602.14 657.381 604.481C649.934 605.241 642.427 605.959 634.858 606.635C568.769 612.575 498.526 615.785 425.694 615.785C415.376 615.785 405.119 615.718 394.923 615.585C394.444 615.585 393.98 615.585 393.515 615.571V1.41199H797.514Z" fill="#F2F2F2"/>
<path d="M796.106 193.961V195.692L796.289 195.326C796.269 194.866 796.207 194.41 796.106 193.961ZM393.516 377.861L392.108 376.721V503.241H393.516V615.569C393.98 615.583 394.445 615.583 394.924 615.583V292.525C394.459 292.778 393.995 293.018 393.516 293.257V377.861ZM392.109 0.00402832V615.544C392.573 615.558 393.038 615.572 393.517 615.572C393.996 615.572 394.446 615.586 394.925 615.586V2.81602H796.106V585.316C796.585 585.246 797.049 585.161 797.514 585.063C797.978 584.993 798.457 584.908 798.922 584.81V0.00402832H392.109Z" fill="#D6D6E3"/>
<path d="M657.383 455.381V604.481C649.936 605.241 642.429 605.959 634.86 606.635V455.381H657.383Z" fill="#3F3D56"/>
<path d="M648.93 476.494H0V503.239H648.93V476.494Z" fill="#4E799B"/>
<path d="M268.383 396.206C268.6 393.103 269.733 390.134 271.638 387.675C273.543 385.216 276.134 383.377 279.084 382.391C282.034 381.405 285.21 381.315 288.211 382.134C291.212 382.953 293.903 384.643 295.943 386.991C297.983 389.339 299.281 392.239 299.673 395.325C300.065 398.411 299.533 401.543 298.144 404.327C296.756 407.11 294.573 409.419 291.872 410.962C289.171 412.505 286.074 413.213 282.971 412.995C278.812 412.698 274.94 410.764 272.205 407.617C269.47 404.469 268.096 400.366 268.383 396.206ZM289.301 397.673C289.373 396.639 289.137 395.606 288.623 394.706C288.109 393.806 287.339 393.078 286.411 392.615C285.484 392.153 284.439 391.975 283.411 392.106C282.382 392.236 281.415 392.669 280.633 393.349C279.85 394.029 279.287 394.926 279.014 395.926C278.741 396.927 278.771 397.985 279.099 398.969C279.428 399.952 280.041 400.816 280.861 401.451C281.681 402.086 282.67 402.463 283.704 402.536C285.091 402.632 286.459 402.174 287.509 401.262C288.558 400.351 289.203 399.06 289.302 397.673L289.301 397.673Z" fill="#090814"/>
<path d="M243.702 373.453C243.75 372.767 243.933 372.097 244.24 371.482C244.547 370.867 244.973 370.318 245.492 369.868L253.887 362.574C254.406 362.122 255.01 361.777 255.663 361.559C256.316 361.341 257.005 361.253 257.692 361.301C258.379 361.349 259.05 361.532 259.666 361.84C260.282 362.147 260.831 362.573 261.283 363.092L280.734 385.478C281.646 386.527 282.103 387.896 282.006 389.283C281.909 390.67 281.265 391.962 280.215 392.874C279.165 393.786 277.797 394.244 276.409 394.146C275.022 394.049 273.731 393.405 272.819 392.355L256.808 373.922L252.37 377.778C251.587 378.458 250.62 378.89 249.592 379.021C248.563 379.151 247.519 378.974 246.591 378.511C245.663 378.048 244.894 377.321 244.38 376.42C243.865 375.52 243.63 374.487 243.702 373.453Z" fill="#090814"/>
<path d="M253.428 384.646C253.476 383.96 253.658 383.29 253.965 382.675C254.273 382.059 254.698 381.511 255.218 381.06L263.612 373.766C264.666 372.892 266.02 372.465 267.385 372.576C268.75 372.687 270.017 373.328 270.916 374.361C271.814 375.394 272.273 376.738 272.193 378.105C272.114 379.472 271.502 380.754 270.49 381.676L262.095 388.97C261.313 389.65 260.346 390.083 259.317 390.214C258.289 390.344 257.245 390.167 256.317 389.704C255.389 389.241 254.619 388.513 254.105 387.613C253.591 386.712 253.355 385.68 253.428 384.646Z" fill="#090814"/>
<path d="M595.517 205.252C574.477 205.252 557.343 187.061 557.343 164.702C557.343 142.343 574.467 124.152 595.517 124.152C616.567 124.152 633.691 142.343 633.691 164.702C633.691 187.061 616.566 205.252 595.517 205.252ZM595.517 134.395C580.117 134.395 567.591 147.989 567.591 164.695C567.591 181.401 580.119 194.995 595.517 194.995C610.915 194.995 623.444 181.395 623.444 164.695C623.444 147.995 610.916 134.395 595.517 134.395Z" fill="#D6D6E3"/>
<path d="M631.663 275.92H559.355C552.98 275.913 546.869 273.377 542.361 268.869C537.854 264.361 535.319 258.249 535.312 251.874V180.957C535.316 176.59 537.052 172.403 540.14 169.315C543.228 166.227 547.415 164.491 551.782 164.487H639.25C643.617 164.49 647.805 166.226 650.893 169.314C653.981 172.402 655.717 176.59 655.72 180.957V251.874C655.714 258.251 653.177 264.365 648.667 268.874C644.157 273.382 638.042 275.917 631.665 275.921L631.663 275.92Z" fill="#4E799B"/>
<path d="M609.602 204.835C609.604 202.331 608.938 199.871 607.673 197.709C606.408 195.548 604.59 193.762 602.406 192.537C600.222 191.312 597.75 190.691 595.246 190.738C592.742 190.786 590.296 191.5 588.16 192.807C586.023 194.114 584.274 195.967 583.092 198.175C581.91 200.383 581.338 202.866 581.435 205.369C581.531 207.871 582.293 210.303 583.642 212.413C584.991 214.523 586.878 216.236 589.109 217.374V239.418H601.926V217.374C604.237 216.194 606.177 214.399 607.531 212.186C608.886 209.974 609.602 207.429 609.602 204.835Z" fill="#F2F2F2"/>
</g>
<defs>
<clipPath id="clip0_582_63">
<rect width="798.922" height="774.848" fill="white"/>
</clipPath>
</defs>
</svg>
